<svg xmlns="http://www.w3.org/2000/svg" shape-rendering="geometricPrecision" text-rendering="geometricPrecision"
     image-rendering="optimizeQuality" fill-rule="evenodd" clip-rule="evenodd" viewBox="0 0 512 500.21">
    <path fill-rule="nonzero" fill="#eeeeee"
          d="m170.31 206.26 93.13-14.25c5.44-.81 10.54 2.95 11.35 8.39l.07 2.41c-3.72 53.69-14.75 116.67-52.29 169.86-32.18 45.61-83.53 83.69-165.77 102.02 15.36 3.02 30.2 4.76 44.51 5.35 73.74 3.03 134.01-24.57 180-65.33 46.34-41.07 78.31-95.48 95.12-145.48 8.21-24.4 12.77-47.69 13.59-67.73.21-5.51 4.85-9.79 10.35-9.58l76.6 13.71L327.86 25.41 170.31 206.26zm83.66 7.4-107.43 16.45c-2.85.48-5.89-.26-8.23-2.31-4.16-3.62-4.6-9.94-.98-14.1L320.51 3.42l1.18-1.14c4.24-3.5 10.55-2.9 14.06 1.34L509.73 213.9c1.78 2.2 2.65 5.12 2.11 8.12-.96 5.4-6.15 9.01-11.55 8.05l-91.14-16.42c-1.87 19.05-6.51 40.13-13.83 61.9-17.78 52.91-51.66 110.52-100.81 154.08-49.52 43.88-114.45 73.6-193.98 70.33-29.1-1.19-60.14-6.83-93.04-17.82-3.87-1.01-6.93-4.3-7.42-8.49-.64-5.47 3.27-10.46 8.74-11.1 102.89-12.26 162.66-52.09 197.43-101.36 32.12-45.5 43.4-99.54 47.73-147.53z"/>
</svg>